# xmcd
#
# Track frame offsets:
# 150
# 11175
# 29092
# 41422
# 57210
# 70517
# 88975
# 100380
# 110385
# 128425
# 148312
# 164900
#
# Disc length: 2348 seconds
#
#
# Revision: 0
# Processed by: cddbd v1.5.2PL0 Copyright (c) Steve Scherf et al.
# Submitted via: FreeRIP 2.944 
#
DISCID=ad092a0c
DTITLE=Scotty Moore - Feel Good Music
DYEAR=1900
DGENRE=
TTITLE0=scot-mo
TTITLE1=feelin' good
TTITLE2=that's alright mama
TTITLE3=reconsider baby
TTITLE4=keep your hands off her
TTITLE5=careless love
TTITLE6=love me like a rock
TTITLE7=spaced out
TTITLE8=love my baby
TTITLE9=tiger man
TTITLE10=will the circle be unbroken
TTITLE11=i'll fly away
EXTD=
EXTT0=
EXTT1=
EXTT2=
EXTT3=
EXTT4=
EXTT5=
EXTT6=
EXTT7=
EXTT8=
EXTT9=
EXTT10=
EXTT11=
PLAYORDER=
